<svg width="26" height="26" viewBox="0 0 26 26" fill="none" xmlns="http://www.w3.org/2000/svg">
<path d="M10.9406 16.9H13.6757L13.8809 15.275C14.0632 15.21 14.2285 15.1342 14.3766 15.0475C14.5248 14.9608 14.6558 14.8633 14.7698 14.755L16.3425 15.405L17.7101 13.195L16.3425 12.22C16.3881 12.0467 16.4109 11.8733 16.4109 11.7C16.4109 11.5267 16.3881 11.3533 16.3425 11.18L17.7101 10.205L16.3425 7.995L14.7698 8.645C14.6558 8.53667 14.5248 8.43917 14.3766 8.3525C14.2285 8.26583 14.0632 8.19 13.8809 8.125L13.6757 6.5H10.9406L10.7355 8.125C10.5531 8.19 10.3879 8.26583 10.2397 8.3525C10.0916 8.43917 9.9605 8.53667 9.84653 8.645L8.27382 7.995L6.90625 10.205L8.27382 11.18C8.22824 11.3533 8.20545 11.5267 8.20545 11.7C8.20545 11.8733 8.22824 12.0467 8.27382 12.22L6.90625 13.195L8.27382 15.405L9.84653 14.755C9.9605 14.8633 10.0916 14.9608 10.2397 15.0475C10.3879 15.1342 10.5531 15.21 10.7355 15.275L10.9406 16.9ZM12.3082 13.65C11.7383 13.65 11.254 13.4604 10.8551 13.0813C10.4562 12.7021 10.2568 12.2417 10.2568 11.7C10.2568 11.1583 10.4562 10.6979 10.8551 10.3188C11.254 9.93958 11.7383 9.75 12.3082 9.75C12.878 9.75 13.3623 9.93958 13.7612 10.3188C14.1601 10.6979 14.3595 11.1583 14.3595 11.7C14.3595 12.2417 14.1601 12.7021 13.7612 13.0813C13.3623 13.4604 12.878 13.65 12.3082 13.65ZM4.10272 26V20.41C2.80353 19.2833 1.79494 17.9671 1.07696 16.4613C0.358988 14.9554 0 13.3683 0 11.7C0 8.45 1.19663 5.6875 3.58988 3.4125C5.98314 1.1375 8.88923 0 12.3082 0C15.1573 0 17.6816 0.79625 19.8811 2.38875C22.0806 3.98125 23.5109 6.05583 24.1719 8.6125L25.9497 15.275C26.0637 15.6867 25.9839 16.0604 25.7104 16.3963C25.4369 16.7321 25.0722 16.9 24.6163 16.9H21.8812V20.8C21.8812 21.515 21.6134 22.1271 21.0777 22.6362C20.5421 23.1454 19.8982 23.4 19.146 23.4H16.4109V26H4.10272Z" fill="#E9C349"/>
</svg>
