<svg width="26" height="26" viewBox="0 0 26 26" fill="none" xmlns="http://www.w3.org/2000/svg">
<g clip-path="url(#clip0_157_6)">
<path d="M18.9582 2.07666C17.7383 2.09563 16.545 2.43617 15.4989 3.06387C14.4527 3.69157 13.5907 4.58422 12.9999 5.65166C12.4091 4.58422 11.5471 3.69157 10.5009 3.06387C9.45471 2.43617 8.26143 2.09563 7.04154 2.07666C5.09689 2.16115 3.26472 3.01185 1.9453 4.44291C0.625888 5.87397 -0.073523 7.76906 -0.000126565 9.71416C-0.000126565 14.6401 5.18471 20.0199 9.53321 23.6675C10.5041 24.4834 11.7317 24.9307 12.9999 24.9307C14.2681 24.9307 15.4956 24.4834 16.4665 23.6675C20.815 20.0199 25.9999 14.6401 25.9999 9.71416C26.0733 7.76906 25.3739 5.87397 24.0544 4.44291C22.735 3.01185 20.9029 2.16115 18.9582 2.07666Z" fill="#E9C349"/>
</g>
<defs>
<clipPath id="clip0_157_6">
<rect width="26" height="26" fill="white"/>
</clipPath>
</defs>
</svg>
