<svg width="25" height="22" viewBox="0 0 25 22" fill="none" xmlns="http://www.w3.org/2000/svg">
<path d="M12.1 21.45C11.22 20.7533 10.2667 20.2125 9.24 19.8275C8.21333 19.4425 7.15 19.25 6.05 19.25C5.28 19.25 4.52375 19.3508 3.78125 19.5525C3.03875 19.7542 2.32833 20.0383 1.65 20.405C1.265 20.6067 0.89375 20.5975 0.53625 20.3775C0.17875 20.1575 0 19.8367 0 19.415V6.16C0 5.95833 0.0504167 5.76583 0.15125 5.5825C0.252083 5.39917 0.403333 5.26167 0.605 5.17C1.44833 4.73 2.32833 4.4 3.245 4.18C4.16167 3.96 5.09667 3.85 6.05 3.85C7.11333 3.85 8.15375 3.9875 9.17125 4.2625C10.1888 4.5375 11.165 4.95 12.1 5.5V18.81C13.035 18.2233 14.0158 17.7833 15.0425 17.49C16.0692 17.1967 17.105 17.05 18.15 17.05C18.81 17.05 19.4563 17.105 20.0888 17.215C20.7213 17.325 21.3583 17.49 22 17.71V4.51C22.275 4.60167 22.5454 4.69792 22.8112 4.79875C23.0771 4.89958 23.3383 5.02333 23.595 5.17C23.7967 5.26167 23.9479 5.39917 24.0487 5.5825C24.1496 5.76583 24.2 5.95833 24.2 6.16V19.415C24.2 19.8367 24.0213 20.1575 23.6638 20.3775C23.3063 20.5975 22.935 20.6067 22.55 20.405C21.8717 20.0383 21.1612 19.7542 20.4188 19.5525C19.6763 19.3508 18.92 19.25 18.15 19.25C17.05 19.25 15.9867 19.4425 14.96 19.8275C13.9333 20.2125 12.98 20.7533 12.1 21.45ZM14.3 15.95V5.5L19.8 0V11L14.3 15.95ZM9.9 17.7375V6.8475C9.295 6.59083 8.66708 6.39375 8.01625 6.25625C7.36542 6.11875 6.71 6.05 6.05 6.05C5.37167 6.05 4.71167 6.11417 4.07 6.2425C3.42833 6.37083 2.805 6.56333 2.2 6.82V17.7375C2.84167 17.4992 3.47875 17.325 4.11125 17.215C4.74375 17.105 5.39 17.05 6.05 17.05C6.71 17.05 7.35625 17.105 7.98875 17.215C8.62125 17.325 9.25833 17.4992 9.9 17.7375ZM9.9 17.7375V6.8475V17.7375Z" fill="#DDB7FF"/>
</svg>
