<svg width="26" height="18" viewBox="0 0 26 18" fill="none" xmlns="http://www.w3.org/2000/svg">
<path d="M13 14.4C14.4773 14.4 15.733 13.875 16.767 12.825C17.8011 11.775 18.3182 10.5 18.3182 9C18.3182 7.5 17.8011 6.225 16.767 5.175C15.733 4.125 14.4773 3.6 13 3.6C11.5227 3.6 10.267 4.125 9.23295 5.175C8.19886 6.225 7.68182 7.5 7.68182 9C7.68182 10.5 8.19886 11.775 9.23295 12.825C10.267 13.875 11.5227 14.4 13 14.4ZM13 12.24C12.1136 12.24 11.3602 11.925 10.7398 11.295C10.1193 10.665 9.80909 9.9 9.80909 9C9.80909 8.1 10.1193 7.335 10.7398 6.705C11.3602 6.075 12.1136 5.76 13 5.76C13.8864 5.76 14.6398 6.075 15.2602 6.705C15.8807 7.335 16.1909 8.1 16.1909 9C16.1909 9.9 15.8807 10.665 15.2602 11.295C14.6398 11.925 13.8864 12.24 13 12.24ZM13 18C10.1242 18 7.50455 17.185 5.14091 15.555C2.77727 13.925 1.06364 11.74 0 9C1.06364 6.26 2.77727 4.075 5.14091 2.445C7.50455 0.815 10.1242 0 13 0C15.8758 0 18.4955 0.815 20.8591 2.445C23.2227 4.075 24.9364 6.26 26 9C24.9364 11.74 23.2227 13.925 20.8591 15.555C18.4955 17.185 15.8758 18 13 18ZM13 15.6C15.2258 15.6 17.2693 15.005 19.1307 13.815C20.992 12.625 22.4152 11.02 23.4 9C22.4152 6.98 20.992 5.375 19.1307 4.185C17.2693 2.995 15.2258 2.4 13 2.4C10.7742 2.4 8.73068 2.995 6.86932 4.185C5.00795 5.375 3.58485 6.98 2.6 9C3.58485 11.02 5.00795 12.625 6.86932 13.815C8.73068 15.005 10.7742 15.6 13 15.6Z" fill="#E9C349"/>
</svg>
